<svg width="35" height="35" viewBox="0 0 51 51" fill="none" xmlns="http://www.w3.org/2000/svg">
  <path d="M20.1451 7.37065C16.5463 5.65239 11.516 4.81069 4.7814 4.78081C4.14626 4.77218 3.52358 4.95738 2.9964 5.31172C2.56369 5.60421 2.20947 5.99854 1.96491 6.46004C1.72036 6.92153 1.59295 7.43605 1.5939 7.95834V36.4566C1.5939 38.383 2.96452 39.8363 4.7814 39.8363C11.8606 39.8363 18.9618 40.4977 23.2151 44.518C23.2733 44.5732 23.3464 44.6101 23.4254 44.6242C23.5044 44.6382 23.5858 44.6287 23.6594 44.5969C23.7331 44.565 23.7958 44.5123 23.8397 44.4451C23.8836 44.378 23.9068 44.2994 23.9064 44.2191V10.6398C23.9066 10.4133 23.8581 10.1893 23.7643 9.98311C23.6704 9.77689 23.5334 9.59322 23.3625 9.44452C22.3883 8.61162 21.306 7.91403 20.1451 7.37065Z" fill="white"/>
  <path d="M48.0038 5.30881C47.4764 4.95535 46.8537 4.77118 46.2188 4.78088C39.4843 4.81076 34.454 5.64848 30.8551 7.37072C29.6943 7.91312 28.6118 8.60934 27.6367 9.44061C27.4662 9.58958 27.3295 9.77332 27.2359 9.97949C27.1422 10.1857 27.0938 10.4095 27.0938 10.6359V44.2172C27.0938 44.2943 27.1165 44.3697 27.1592 44.434C27.2018 44.4982 27.2624 44.5484 27.3335 44.5783C27.4046 44.6082 27.4829 44.6164 27.5586 44.602C27.6344 44.5876 27.7042 44.5511 27.7592 44.4971C30.3162 41.9571 34.8036 39.8334 46.2228 39.8344C47.0682 39.8344 47.879 39.4986 48.4767 38.9008C49.0745 38.303 49.4103 37.4923 49.4103 36.6469V7.95942C49.4115 7.43609 49.2838 6.92053 49.0385 6.45826C48.7932 5.99599 48.4379 5.60122 48.0038 5.30881Z" fill="white"/>
</svg>
